<svg width="1184" height="548" viewBox="0 0 1184 548" fill="none" xmlns="http://www.w3.org/2000/svg">
<path d="M1174 56.5L1159.39 71.3438C1159.12 71.6103 1158.99 71.7439 1158.87 71.8491C1156.97 73.5483 1154.1 73.5483 1152.21 71.8491C1152.09 71.7439 1151.95 71.6105 1151.69 71.3437C1151.43 71.077 1151.3 70.9436 1151.18 70.8384C1149.28 69.1392 1146.41 69.1392 1144.51 70.8384C1144.39 70.9433 1144.26 71.0763 1144 71.3418L1134 81.5M1174 56.5L1174 71.5M1174 56.5H1159" stroke="#83AA5C" stroke-width="5" stroke-linecap="round" stroke-linejoin="round"/>
<g opacity="0.6">
<path d="M45.4497 21.7256C38.817 18.1354 30.3545 19.1431 24.7489 24.7487C19.1433 30.3544 18.1356 38.8168 21.7258 45.4495M60.1043 60.1041C53.2701 66.9382 42.1897 66.9382 35.3555 60.1041C28.5213 53.2699 28.5213 42.1895 35.3555 35.3553C42.1897 28.5212 53.2701 28.5212 60.1043 35.3553C66.9384 42.1895 66.9384 53.2699 60.1043 60.1041Z" stroke="#83AA5C" stroke-width="5" stroke-linecap="round" stroke-linejoin="round"/>
</g>
<g opacity="0.1">
<circle cx="484" cy="21" r="2" fill="#214A21"/>
<circle cx="500" cy="21" r="2" fill="#214A21"/>
<circle cx="516" cy="21" r="2" fill="#214A21"/>
<circle cx="532" cy="21" r="2" fill="#214A21"/>
<circle cx="548" cy="21" r="2" fill="#214A21"/>
<circle cx="564" cy="21" r="2" fill="#214A21"/>
<circle cx="580" cy="21" r="2" fill="#214A21"/>
<circle cx="484" cy="33" r="2" fill="#214A21"/>
<circle cx="500" cy="33" r="2" fill="#214A21"/>
<circle cx="516" cy="33" r="2" fill="#214A21"/>
<circle cx="532" cy="33" r="2" fill="#214A21"/>
<circle cx="548" cy="33" r="2" fill="#214A21"/>
<circle cx="564" cy="33" r="2" fill="#214A21"/>
<circle cx="580" cy="33" r="2" fill="#214A21"/>
<circle cx="484" cy="45" r="2" fill="#214A21"/>
<circle cx="500" cy="45" r="2" fill="#214A21"/>
<circle cx="516" cy="45" r="2" fill="#214A21"/>
<circle cx="532" cy="45" r="2" fill="#214A21"/>
<circle cx="548" cy="45" r="2" fill="#214A21"/>
<circle cx="564" cy="45" r="2" fill="#214A21"/>
<circle cx="580" cy="45" r="2" fill="#214A21"/>
<circle cx="484" cy="57" r="2" fill="#214A21"/>
<circle cx="500" cy="57" r="2" fill="#214A21"/>
<circle cx="516" cy="57" r="2" fill="#214A21"/>
<circle cx="532" cy="57" r="2" fill="#214A21"/>
<circle cx="548" cy="57" r="2" fill="#214A21"/>
<circle cx="564" cy="57" r="2" fill="#214A21"/>
<circle cx="580" cy="57" r="2" fill="#214A21"/>
<circle cx="484" cy="69" r="2" fill="#214A21"/>
<circle cx="500" cy="69" r="2" fill="#214A21"/>
<circle cx="516" cy="69" r="2" fill="#214A21"/>
<circle cx="532" cy="69" r="2" fill="#214A21"/>
<circle cx="548" cy="69" r="2" fill="#214A21"/>
<circle cx="564" cy="69" r="2" fill="#214A21"/>
<circle cx="580" cy="69" r="2" fill="#214A21"/>
<circle cx="484" cy="81" r="2" fill="#214A21"/>
<circle cx="500" cy="81" r="2" fill="#214A21"/>
<circle cx="516" cy="81" r="2" fill="#214A21"/>
<circle cx="532" cy="81" r="2" fill="#214A21"/>
<circle cx="548" cy="81" r="2" fill="#214A21"/>
<circle cx="564" cy="81" r="2" fill="#214A21"/>
<circle cx="580" cy="81" r="2" fill="#214A21"/>
<circle cx="484" cy="93" r="2" fill="#214A21"/>
<circle cx="500" cy="93" r="2" fill="#214A21"/>
<circle cx="516" cy="93" r="2" fill="#214A21"/>
<circle cx="532" cy="93" r="2" fill="#214A21"/>
<circle cx="548" cy="93" r="2" fill="#214A21"/>
<circle cx="564" cy="93" r="2" fill="#214A21"/>
<circle cx="580" cy="93" r="2" fill="#214A21"/>
</g>
<g opacity="0.3">
<circle cx="1063.46" cy="456.46" r="2.46" fill="#214A21"/>
<circle cx="1083.14" cy="456.46" r="2.46" fill="#214A21"/>
<circle cx="1102.82" cy="456.46" r="2.46" fill="#214A21"/>
<circle cx="1122.5" cy="456.46" r="2.46" fill="#214A21"/>
<circle cx="1142.18" cy="456.46" r="2.46" fill="#214A21"/>
<circle cx="1161.86" cy="456.46" r="2.46" fill="#214A21"/>
<circle cx="1181.54" cy="456.46" r="2.46" fill="#214A21"/>
<circle cx="1063.46" cy="471.22" r="2.46" fill="#214A21"/>
<circle cx="1083.14" cy="471.22" r="2.46" fill="#214A21"/>
<circle cx="1102.82" cy="471.22" r="2.46" fill="#214A21"/>
<circle cx="1122.5" cy="471.22" r="2.46" fill="#214A21"/>
<circle cx="1142.18" cy="471.22" r="2.46" fill="#214A21"/>
<circle cx="1161.86" cy="471.22" r="2.46" fill="#214A21"/>
<circle cx="1181.54" cy="471.22" r="2.46" fill="#214A21"/>
<circle cx="1063.46" cy="485.98" r="2.46" fill="#214A21"/>
<circle cx="1083.14" cy="485.98" r="2.46" fill="#214A21"/>
<circle cx="1102.82" cy="485.98" r="2.46" fill="#214A21"/>
<circle cx="1122.5" cy="485.98" r="2.46" fill="#214A21"/>
<circle cx="1142.18" cy="485.98" r="2.46" fill="#214A21"/>
<circle cx="1161.86" cy="485.98" r="2.46" fill="#214A21"/>
<circle cx="1181.54" cy="485.98" r="2.46" fill="#214A21"/>
<circle cx="1063.46" cy="500.74" r="2.46" fill="#214A21"/>
<circle cx="1083.14" cy="500.74" r="2.46" fill="#214A21"/>
<circle cx="1102.82" cy="500.74" r="2.46" fill="#214A21"/>
<circle cx="1122.5" cy="500.74" r="2.46" fill="#214A21"/>
<circle cx="1142.18" cy="500.74" r="2.46" fill="#214A21"/>
<circle cx="1161.86" cy="500.74" r="2.46" fill="#214A21"/>
<circle cx="1181.54" cy="500.74" r="2.46" fill="#214A21"/>
<circle cx="1063.46" cy="515.5" r="2.46" fill="#214A21"/>
<circle cx="1083.14" cy="515.5" r="2.46" fill="#214A21"/>
<circle cx="1102.82" cy="515.5" r="2.46" fill="#214A21"/>
<circle cx="1122.5" cy="515.5" r="2.46" fill="#214A21"/>
<circle cx="1142.18" cy="515.5" r="2.46" fill="#214A21"/>
<circle cx="1161.86" cy="515.5" r="2.46" fill="#214A21"/>
<circle cx="1181.54" cy="515.5" r="2.46" fill="#214A21"/>
<circle cx="1063.46" cy="530.26" r="2.46" fill="#214A21"/>
<circle cx="1083.14" cy="530.26" r="2.46" fill="#214A21"/>
<circle cx="1102.82" cy="530.26" r="2.46" fill="#214A21"/>
<circle cx="1122.5" cy="530.26" r="2.46" fill="#214A21"/>
<circle cx="1142.18" cy="530.26" r="2.46" fill="#214A21"/>
<circle cx="1161.86" cy="530.26" r="2.46" fill="#214A21"/>
<circle cx="1181.54" cy="530.26" r="2.46" fill="#214A21"/>
<circle cx="1063.46" cy="545.02" r="2.46" fill="#214A21"/>
<circle cx="1083.14" cy="545.02" r="2.46" fill="#214A21"/>
<circle cx="1102.82" cy="545.02" r="2.46" fill="#214A21"/>
<circle cx="1122.5" cy="545.02" r="2.46" fill="#214A21"/>
<circle cx="1142.18" cy="545.02" r="2.46" fill="#214A21"/>
<circle cx="1161.86" cy="545.02" r="2.46" fill="#214A21"/>
<circle cx="1181.54" cy="545.02" r="2.46" fill="#214A21"/>
</g>
<path d="M763.141 297.296L743.676 286.057L754.374 279.879L773.839 291.118L763.141 297.296Z" fill="#C8ECC6"/>
<path d="M793.938 315.073L774.473 303.838L785.167 297.66L804.632 308.899L793.938 315.073Z" fill="#C8ECC6"/>
<path d="M824.731 332.854L805.266 321.614L815.964 315.44L835.429 326.68L824.731 332.854Z" fill="#C8ECC6"/>
<path d="M859.778 350.058C854.899 348.853 850.462 347.111 846.39 345.174L843.447 343.636C842.458 343.118 841.776 342.688 840.925 342.205L836.059 339.395L846.753 333.221L851.619 336.031C852.408 336.474 853.286 337.019 854.008 337.383L856.171 338.509C859.171 339.918 862.38 341.212 865.956 342.081L859.778 350.058Z" fill="#C8ECC6"/>
<path d="M908.259 349.588C903.557 350.98 898.456 351.857 893.297 352.465C888.098 353.001 882.793 353.085 877.528 352.837L878.942 344.119C882.802 344.283 886.694 344.235 890.501 343.845C894.272 343.388 898.013 342.768 901.439 341.74L908.259 349.588Z" fill="#C8ECC6"/>
<path d="M938.046 327.597C935.835 333.563 930.459 339.076 923.115 343.41L912.315 337.219C917.695 334.019 921.617 330.026 923.23 325.652L938.046 327.597Z" fill="#C8ECC6"/>
<path d="M927.272 300.261C930.587 302.654 933.153 305.362 935.258 308.168C937.169 311.022 938.511 313.996 939.096 317.027L924.006 317.905C923.571 315.68 922.574 313.508 921.2 311.421C919.631 309.382 917.797 307.397 915.359 305.65L927.272 300.261Z" fill="#C8ECC6"/>
<path d="M896.16 281.935L915.625 293.174L904.931 299.348L885.466 288.109L896.16 281.935Z" fill="#C8ECC6"/>
<path d="M865.367 264.154L884.832 275.394L874.133 281.572L854.668 270.332L865.367 264.154Z" fill="#214A21"/>
<path d="M846.288 245.598C846.722 247.823 847.719 249.994 849.093 252.082C850.662 254.12 852.497 256.106 854.934 257.852L843.021 263.237C839.706 260.844 837.14 258.136 835.035 255.335C833.125 252.481 831.782 249.507 831.197 246.475L846.288 245.598Z" fill="#214A21"/>
<path d="M857.983 226.284C852.603 229.483 848.681 233.477 847.067 237.851L832.252 235.905C834.463 229.94 839.835 224.427 847.183 220.092L857.983 226.284Z" fill="#214A21"/>
<path d="M891.356 219.388C887.496 219.224 883.604 219.272 879.797 219.662C876.026 220.123 872.285 220.739 868.859 221.767L862.034 213.919C866.736 212.527 871.838 211.649 876.996 211.042C882.195 210.506 887.5 210.422 892.765 210.67L891.356 219.388Z" fill="#214A21"/>
<path d="M923.541 230.286L918.674 227.476C917.885 227.033 917.008 226.487 916.29 226.124L914.127 224.994C911.127 223.585 907.918 222.29 904.341 221.426L910.52 213.449C915.399 214.654 919.835 216.396 923.908 218.337L926.851 219.875C927.839 220.394 928.522 220.823 929.373 221.307L934.239 224.116L923.541 230.286Z" fill="#214A21"/>
<path d="M954.333 248.066L934.868 236.827L945.563 230.649L965.028 241.888L954.333 248.066Z" fill="#214A21"/>
<path d="M985.126 265.843L965.661 254.603L976.36 248.43L995.825 259.669L985.126 265.843Z" fill="#214A21"/>
<path d="M1015.92 283.624L996.454 272.384L1007.15 266.211L1026.62 277.45L1015.92 283.624Z" fill="#214A21"/>
<path d="M1040.29 291.703C1032.61 296.14 1020.12 296.117 1012.39 291.655C1004.66 287.192 1004.62 279.981 1012.3 275.544C1019.98 271.108 1032.47 271.13 1040.2 275.593C1047.93 280.056 1047.97 287.271 1040.29 291.703Z" fill="#214A21"/>
<path d="M741.728 266.419C746.703 266.428 751.654 267.534 755.412 269.704C759.175 271.875 760.936 274.636 760.95 277.275C760.964 279.912 759.235 282.663 755.501 284.82C751.769 286.975 746.831 288.065 741.855 288.056C736.88 288.047 731.929 286.94 728.172 284.771C724.41 282.599 722.65 279.838 722.635 277.2C722.621 274.563 724.348 271.812 728.083 269.655C731.814 267.499 736.753 266.411 741.728 266.419Z" fill="#F3FBF2" stroke="#214A21" stroke-width="1.14787"/>
<path d="M754.573 129.885L754.551 129.916C748.555 127.421 740.75 128.298 732.197 133.236C713.308 144.143 698 170.543 698 192.22C698 221.714 732.197 255.268 732.197 255.268L743.99 261.384L766.557 136.121L754.573 129.885Z" fill="#C8ECC6"/>
<path d="M743.994 139.352C762.883 128.445 778.191 137.171 778.191 158.848C778.191 188.342 743.994 261.384 743.994 261.384C743.994 261.384 709.798 227.83 709.798 198.336C709.798 176.659 725.106 150.258 743.994 139.352Z" fill="#C8ECC6"/>
<path d="M724.188 190.026C724.188 202.582 733.057 207.638 743.999 201.318C754.941 194.999 763.81 179.704 763.81 167.148C763.81 154.593 754.941 149.536 743.999 155.856C733.057 162.171 724.188 177.47 724.188 190.026Z" fill="#214A21"/>
<path d="M710.808 199.417C710.808 177.985 725.943 151.881 744.619 141.098C760.902 131.698 774.486 137.06 777.704 152.789C775.058 135.669 760.995 129.539 743.994 139.356C725.106 150.263 709.798 176.664 709.798 198.34C709.798 227.835 743.994 261.389 743.994 261.389C743.994 261.389 744.03 261.309 744.079 261.212C739.882 256.953 710.808 226.479 710.808 199.417Z" fill="#214A21"/>
<path d="M1038.02 106.564L1038 106.6C1031.03 103.701 1021.97 104.721 1012.04 110.455C990.114 123.117 972.342 153.769 972.342 178.933C972.342 213.178 1012.04 252.131 1012.04 252.131L1023.85 257.967L1050.06 112.543L1038.02 106.564Z" fill="#214A21"/>
<path d="M1026.29 116.288C1048.22 103.626 1066 113.757 1066 138.922C1066 173.167 1026.29 257.963 1026.29 257.963C1026.29 257.963 986.593 219.006 986.593 184.765C986.593 159.601 1004.37 128.95 1026.29 116.288Z" fill="#214A21"/>
<path d="M1003.3 175.117C1003.3 189.694 1013.59 195.562 1026.29 188.231C1039 180.896 1049.29 163.138 1049.29 148.561C1049.29 133.984 1039 128.112 1026.29 135.447C1013.6 142.782 1003.3 160.54 1003.3 175.117Z" fill="#F3FBF2"/>
<path d="M988.433 185.497C988.433 160.913 1005.79 130.971 1027.22 118.606C1048.41 106.374 1065.59 115.947 1065.96 139.945C1065.97 139.609 1066 139.25 1066 138.922C1066 113.757 1048.23 103.626 1026.3 116.288C1004.37 128.95 986.598 159.601 986.598 184.77C986.598 219.015 1026.3 257.967 1026.3 257.967C1026.29 257.963 988.433 218.944 988.433 185.497Z" fill="#9DDB9A"/>
</svg>
